<mxfile host="app.diagrams.net" modified="2023-03-23T12:24:32.585Z" agent="5.0 (Windows)" etag="WMAoVXQ7Mn4R33Nyfy7i" version="21.0.10" type="github">
  <diagram name="Strona-1" id="cZVlWavqVY3YrNGwiOLR">
    <mxGraphModel dx="1434" dy="782" grid="1" gridSize="10" guides="1" tooltips="1" connect="1" arrows="1" fold="1" page="1" pageScale="1" pageWidth="827" pageHeight="1169" math="0" shadow="0">
      <root>
        <mxCell id="0" />
        <mxCell id="1" parent="0" />
        <mxCell id="bpM6TylIaN7_59oKHj5P-3" style="edgeStyle=orthogonalEdgeStyle;rounded=0;orthogonalLoop=1;jettySize=auto;html=1;exitX=0.5;exitY=1;exitDx=0;exitDy=0;entryX=0.5;entryY=0;entryDx=0;entryDy=0;" edge="1" parent="1" source="bpM6TylIaN7_59oKHj5P-1" target="bpM6TylIaN7_59oKHj5P-2">
          <mxGeometry relative="1" as="geometry" />
        </mxCell>
        <mxCell id="bpM6TylIaN7_59oKHj5P-1" value="Start" style="ellipse;whiteSpace=wrap;html=1;" vertex="1" parent="1">
          <mxGeometry x="354" y="110" width="120" height="80" as="geometry" />
        </mxCell>
        <mxCell id="bpM6TylIaN7_59oKHj5P-4" style="edgeStyle=orthogonalEdgeStyle;rounded=0;orthogonalLoop=1;jettySize=auto;html=1;exitX=0.5;exitY=1;exitDx=0;exitDy=0;" edge="1" parent="1" source="bpM6TylIaN7_59oKHj5P-2">
          <mxGeometry relative="1" as="geometry">
            <mxPoint x="414" y="340" as="targetPoint" />
          </mxGeometry>
        </mxCell>
        <mxCell id="bpM6TylIaN7_59oKHj5P-2" value="&lt;div&gt;podaj x&lt;br&gt;&lt;/div&gt;&lt;div&gt;podaj n&lt;/div&gt;&lt;div&gt;wynik = 1&lt;br&gt;&lt;/div&gt;" style="rounded=0;whiteSpace=wrap;html=1;" vertex="1" parent="1">
          <mxGeometry x="339" y="230" width="150" height="70" as="geometry" />
        </mxCell>
        <mxCell id="bpM6TylIaN7_59oKHj5P-7" style="edgeStyle=orthogonalEdgeStyle;rounded=0;orthogonalLoop=1;jettySize=auto;html=1;exitX=0;exitY=0.5;exitDx=0;exitDy=0;" edge="1" parent="1" source="bpM6TylIaN7_59oKHj5P-5">
          <mxGeometry relative="1" as="geometry">
            <mxPoint x="290" y="380" as="targetPoint" />
          </mxGeometry>
        </mxCell>
        <mxCell id="bpM6TylIaN7_59oKHj5P-9" style="edgeStyle=orthogonalEdgeStyle;rounded=0;orthogonalLoop=1;jettySize=auto;html=1;exitX=1;exitY=0.5;exitDx=0;exitDy=0;" edge="1" parent="1" source="bpM6TylIaN7_59oKHj5P-5">
          <mxGeometry relative="1" as="geometry">
            <mxPoint x="530" y="380" as="targetPoint" />
          </mxGeometry>
        </mxCell>
        <mxCell id="bpM6TylIaN7_59oKHj5P-5" value="n &amp;gt; 0" style="rhombus;whiteSpace=wrap;html=1;" vertex="1" parent="1">
          <mxGeometry x="350" y="340" width="130" height="80" as="geometry" />
        </mxCell>
        <mxCell id="bpM6TylIaN7_59oKHj5P-8" value="Tak" style="text;html=1;strokeColor=none;fillColor=none;align=center;verticalAlign=middle;whiteSpace=wrap;rounded=0;" vertex="1" parent="1">
          <mxGeometry x="294" y="350" width="60" height="30" as="geometry" />
        </mxCell>
        <mxCell id="bpM6TylIaN7_59oKHj5P-10" value="Nie" style="text;html=1;align=center;verticalAlign=middle;resizable=0;points=[];autosize=1;strokeColor=none;fillColor=none;" vertex="1" parent="1">
          <mxGeometry x="480" y="345" width="40" height="30" as="geometry" />
        </mxCell>
        <mxCell id="bpM6TylIaN7_59oKHj5P-12" style="edgeStyle=orthogonalEdgeStyle;rounded=0;orthogonalLoop=1;jettySize=auto;html=1;" edge="1" parent="1" source="bpM6TylIaN7_59oKHj5P-11">
          <mxGeometry relative="1" as="geometry">
            <mxPoint x="590" y="480" as="targetPoint" />
          </mxGeometry>
        </mxCell>
        <mxCell id="bpM6TylIaN7_59oKHj5P-11" value="wynik" style="rounded=0;whiteSpace=wrap;html=1;" vertex="1" parent="1">
          <mxGeometry x="530" y="350" width="120" height="60" as="geometry" />
        </mxCell>
        <mxCell id="bpM6TylIaN7_59oKHj5P-13" value="Stop" style="ellipse;whiteSpace=wrap;html=1;" vertex="1" parent="1">
          <mxGeometry x="530" y="480" width="120" height="80" as="geometry" />
        </mxCell>
        <mxCell id="bpM6TylIaN7_59oKHj5P-17" style="edgeStyle=orthogonalEdgeStyle;rounded=0;orthogonalLoop=1;jettySize=auto;html=1;exitX=0.5;exitY=0;exitDx=0;exitDy=0;entryX=0.5;entryY=0;entryDx=0;entryDy=0;" edge="1" parent="1" source="bpM6TylIaN7_59oKHj5P-14" target="bpM6TylIaN7_59oKHj5P-5">
          <mxGeometry relative="1" as="geometry" />
        </mxCell>
        <mxCell id="bpM6TylIaN7_59oKHj5P-14" value="wynik = wynik * x&lt;br&gt;&lt;div&gt;n = n - 1&lt;br&gt;&lt;/div&gt;" style="rounded=0;whiteSpace=wrap;html=1;" vertex="1" parent="1">
          <mxGeometry x="170" y="350" width="120" height="60" as="geometry" />
        </mxCell>
      </root>
    </mxGraphModel>
  </diagram>
</mxfile>
